<!-- Generated by IcoMoon.io -->
<svg version="1.1" xmlns="http://www.w3.org/2000/svg" width="59" height="32" viewBox="0 0 59 32">
<title>logo-company2</title>
<path fill="#afb1b8" d="M28.561 7.629h-0.047c-0.073-0.004-0.146-0.006-0.219-0.008h-0.158c-0.138 0-0.279 0.004-0.419 0.011-0.005-0-0.010-0.001-0.016-0.001s-0.011 0-0.017 0.001l0.001-0c-1.268 0.072-2.51 0.389-3.658 0.933l-0.15 0.073v7.701l0.352-0.119c0.309-0.106 0.638-0.202 0.978-0.29 0.841-0.225 1.81-0.361 2.808-0.374l0.008-0v1.012c-0.126 0.001-0.248 0.004-0.37 0.011h-0.029c-0.731 0.040-1.457 0.151-2.166 0.333-0.899 0.225-1.766 0.563-2.581 1.006v-9.877c0.846-0.494 1.758-0.864 2.707-1.101 0.765-0.206 1.643-0.325 2.55-0.329h0.151c0.178 0.004 0.351 0.012 0.514 0.025 0.429 0.030 0.854 0.098 1.271 0.203v0.996c-0.355-0.087-0.776-0.153-1.206-0.184l-0.026-0.002c-0.008-0.001-0.017-0.001-0.025-0.002-0.086-0.007-0.172-0.015-0.252-0.015zM30.314 8.647c0.221 0.017 0.45 0.025 0.681 0.025 0.905-0.003 1.806-0.119 2.683-0.344 0.98-0.25 1.839-0.595 2.637-1.035l-0.057 0.029v9.701c-0.847 0.493-1.758 0.864-2.708 1.101-0.765 0.205-1.643 0.324-2.549 0.328h-0.002c-0.019 0-0.041 0-0.063 0-0.665 0-1.311-0.083-1.927-0.24l0.054 0.012v-9.764c0.15 0.034 0.304 0.066 0.46 0.093 0.257 0.043 0.528 0.075 0.792 0.095zM35.251 8.723l-0.352 0.119c-0.324 0.109-0.65 0.206-0.978 0.293-0.876 0.235-1.883 0.371-2.922 0.375h-0.002c-0.23 0-0.441-0.006-0.645-0.019l-0.281-0.019v7.922l0.241 0.021c0.224 0.019 0.454 0.029 0.686 0.029 0.777-0.003 1.55-0.103 2.303-0.298 0.69-0.175 1.289-0.396 1.857-0.672l-0.057 0.025 0.151-0.073v-7.704z"></path>
<path fill="#afb1b8" d="M23.561 21.291c-0.049-0.051-0.109-0.092-0.176-0.12l-0.003-0.001c-0.057-0.024-0.124-0.038-0.194-0.038-0.007 0-0.013 0-0.020 0l0.001-0c-0.002-0-0.005-0-0.008-0-0.079 0-0.154 0.016-0.222 0.044l0.004-0.001c-0.069 0.028-0.127 0.067-0.176 0.116v0c-0.050 0.050-0.088 0.111-0.113 0.177-0.026 0.063-0.041 0.136-0.041 0.212 0 0.002 0 0.005 0 0.007v-0 1.32c-0.003 0.093 0.015 0.186 0.052 0.271 0.031 0.068 0.076 0.128 0.132 0.177 0.053 0.044 0.115 0.076 0.181 0.094 0.064 0.018 0.13 0.027 0.197 0.027 0.073 0.001 0.146-0.015 0.213-0.046 0.066-0.029 0.126-0.070 0.176-0.122 0.049-0.051 0.088-0.111 0.115-0.177 0.028-0.067 0.043-0.138 0.042-0.21v-0.148h-0.345v0.118c0 0.002 0 0.005 0 0.008 0 0.039-0.007 0.077-0.021 0.112l0.001-0.002c-0.012 0.029-0.029 0.054-0.050 0.074l-0 0c-0.020 0.017-0.044 0.030-0.071 0.038l-0.002 0c-0.021 0.007-0.046 0.012-0.072 0.012h-0c-0.006 0.001-0.013 0.001-0.020 0.001-0.025 0-0.049-0.005-0.071-0.015l0.001 0c-0.029-0.013-0.053-0.032-0.071-0.057l-0-0c-0.029-0.046-0.046-0.103-0.046-0.163 0-0.005 0-0.010 0-0.014l-0 0.001v-1.23c-0-0.004-0-0.009-0-0.013 0-0.067 0.016-0.13 0.044-0.186l-0.001 0.002c0.018-0.028 0.043-0.050 0.072-0.064l0.001-0c0.022-0.011 0.048-0.017 0.075-0.017 0.007 0 0.015 0 0.022 0.001l-0.001-0c0.002-0 0.004-0 0.006-0 0.029 0 0.056 0.007 0.081 0.019l-0.001-0c0.027 0.013 0.050 0.032 0.068 0.056l0 0c0.039 0.051 0.059 0.113 0.057 0.177v0.114h0.341v-0.134c0-0.002 0-0.003 0-0.005 0-0.081-0.016-0.159-0.044-0.23l0.001 0.004c-0.027-0.072-0.066-0.134-0.116-0.186l0 0zM25.61 21.276c-0.11-0.093-0.249-0.144-0.392-0.145-0.070 0-0.14 0.013-0.206 0.037-0.067 0.024-0.129 0.061-0.182 0.108-0.056 0.051-0.101 0.112-0.132 0.181l-0.001 0.003c-0.035 0.081-0.052 0.168-0.050 0.256v1.266c-0.002 0.089 0.015 0.177 0.050 0.259 0.031 0.068 0.077 0.128 0.134 0.177 0.053 0.049 0.115 0.087 0.182 0.111 0.066 0.024 0.136 0.037 0.206 0.037 0.074-0 0.145-0.014 0.21-0.038l-0.004 0.001c0.072-0.027 0.134-0.064 0.187-0.112l-0.001 0c0.055-0.049 0.099-0.11 0.13-0.177 0.035-0.082 0.053-0.17 0.050-0.259v-1.266c0-0.004 0-0.008 0-0.012 0-0.088-0.018-0.172-0.052-0.248l0.002 0.004c-0.032-0.072-0.076-0.134-0.13-0.185l-0-0zM25.449 22.982c0.001 0.006 0.001 0.013 0.001 0.019 0 0.029-0.005 0.056-0.015 0.081l0.001-0.002c-0.013 0.033-0.031 0.061-0.055 0.084l-0 0c-0.044 0.037-0.1 0.059-0.162 0.059v0c-0.059 0-0.117-0.021-0.162-0.059-0.024-0.023-0.043-0.051-0.054-0.082l-0.001-0.002c-0.009-0.024-0.014-0.051-0.014-0.080 0-0.007 0-0.014 0.001-0.020l-0 0.001v-1.266c-0.001-0.006-0.001-0.013-0.001-0.020 0-0.029 0.005-0.056 0.015-0.081l-0.001 0.002c0.012-0.033 0.031-0.061 0.055-0.084l0-0c0.046-0.038 0.103-0.059 0.162-0.059 0.062 0 0.119 0.022 0.163 0.059l-0-0c0.024 0.023 0.042 0.051 0.054 0.082l0.001 0.002c0.009 0.024 0.014 0.051 0.014 0.080 0 0.007-0 0.014-0.001 0.020l0-0.001v1.266zM28.302 23.548v-2.396h-0.332l-0.436 1.268h-0.006l-0.439-1.268h-0.328v2.396h0.342v-1.458h0.006l0.335 1.030h0.171l0.338-1.030h0.006v1.458h0.342zM30.246 21.32c-0.053-0.059-0.119-0.104-0.194-0.131-0.070-0.024-0.151-0.037-0.235-0.037-0.005 0-0.009 0-0.014 0h-0.508v2.396h0.341v-0.936h0.176c0.107 0.005 0.213-0.018 0.308-0.065 0.078-0.043 0.142-0.106 0.187-0.183 0.039-0.064 0.066-0.135 0.078-0.209 0.013-0.090 0.020-0.181 0.018-0.272 0-0.012 0.001-0.026 0.001-0.040 0-0.107-0.012-0.212-0.036-0.312l0.002 0.009c-0.023-0.083-0.066-0.159-0.126-0.22zM30.070 22.050c-0.002 0.046-0.013 0.088-0.032 0.126l0.001-0.002c-0.020 0.037-0.050 0.066-0.088 0.084-0.051 0.023-0.106 0.033-0.161 0.030h-0.156v-0.815h0.176c0.005-0 0.010-0 0.016-0 0.050 0 0.098 0.011 0.14 0.031l-0.002-0.001c0.035 0.021 0.063 0.051 0.080 0.087l0 0.001c0.019 0.042 0.029 0.087 0.030 0.134v0.159c0 0.056 0.003 0.113 0 0.165h-0.003zM31.864 21.152h-0.28l-0.528 2.396h0.341l0.1-0.515h0.465l0.1 0.515h0.341l-0.541-2.396zM31.549 22.706l0.168-0.869h0.006l0.167 0.869h-0.341zM34.069 22.595h-0.006l-0.516-1.443h-0.328v2.396h0.341v-1.441h0.007l0.522 1.441h0.321v-2.396h-0.341v1.443zM36.156 21.152l-0.275 0.953h-0.007l-0.274-0.953h-0.362l0.469 1.383v1.013h0.342v-1.013l0.469-1.383h-0.361zM22.609 24.224h0.165v0.462h0.112v-0.462h0.164v-0.095h-0.44v0.095zM23.992 24.13l-0.216 0.556h0.119l0.046-0.126h0.222l0.047 0.126h0.121l-0.221-0.556h-0.119zM23.974 24.466l0.076-0.206 0.076 0.206h-0.151zM25.359 24.481h0.128v0.072c-0.036 0.029-0.082 0.047-0.132 0.047h-0c-0.002 0-0.005 0-0.008 0-0.021 0-0.041-0.005-0.058-0.013l0.001 0c-0.021-0.010-0.039-0.023-0.052-0.041l-0-0c-0.026-0.037-0.042-0.083-0.042-0.133 0-0.004 0-0.009 0-0.013l-0 0.001c0-0.124 0.054-0.186 0.16-0.186 0.003-0 0.008-0.001 0.012-0.001 0.025 0 0.049 0.008 0.068 0.022l-0-0c0.023 0.016 0.040 0.040 0.047 0.068l0.11-0.021c-0.024-0.109-0.102-0.164-0.236-0.164-0.072-0.002-0.141 0.024-0.194 0.072-0.027 0.027-0.049 0.060-0.063 0.096l-0.001 0.002c-0.011 0.028-0.017 0.061-0.017 0.096 0 0.007 0 0.014 0.001 0.021l-0-0.001c-0 0.004-0 0.009-0 0.013 0 0.075 0.027 0.143 0.072 0.196l-0-0c0.027 0.027 0.059 0.049 0.095 0.063l0.002 0.001c0.029 0.011 0.062 0.018 0.097 0.018 0.006 0 0.012-0 0.019-0.001l-0.001 0c0.087 0.002 0.172-0.029 0.236-0.088v-0.219h-0.241v0.094zM26.756 24.13h-0.113v0.556h0.39v-0.095h-0.277v-0.462zM27.937 24.13h-0.113v0.556h0.113v-0.556zM29.091 24.501l-0.228-0.372h-0.109v0.556h0.105v-0.363l0.224 0.363h0.112v-0.556h-0.103v0.372zM30.135 24.441h0.277v-0.095h-0.277v-0.122h0.298v-0.095h-0.411v0.556h0.422v-0.095h-0.31v-0.15zM32.665 24.349h-0.219v-0.219h-0.112v0.556h0.112v-0.243h0.219v0.243h0.112v-0.556h-0.112v0.219zM33.715 24.441h0.278v-0.095h-0.278v-0.122h0.299v-0.095h-0.411v0.556h0.421v-0.095h-0.31v-0.15zM35.138 24.441c0.097-0.015 0.146-0.066 0.146-0.155 0.003-0.024-0.001-0.048-0.010-0.069s-0.025-0.041-0.044-0.054c-0.041-0.021-0.090-0.033-0.141-0.033-0.008 0-0.015 0-0.023 0.001l0.001-0h-0.236v0.556h0.112v-0.233h0.022c0.024-0.001 0.048 0.003 0.070 0.012 0.016 0.010 0.030 0.024 0.040 0.041l0.121 0.177h0.134l-0.068-0.109c-0.030-0.054-0.072-0.099-0.123-0.134zM35.026 24.364h-0.082v-0.14h0.088c0.038-0.003 0.077 0.001 0.113 0.013 0.008 0.007 0.015 0.016 0.019 0.026s0.006 0.021 0.006 0.032c-0 0.011-0.003 0.021-0.008 0.031s-0.013 0.018-0.021 0.024l-0 0c-0.028 0.009-0.060 0.014-0.093 0.014-0.007 0-0.014-0-0.022-0.001l0.001 0zM36.212 24.441h0.277v-0.095h-0.277v-0.122h0.299v-0.095h-0.412v0.556h0.422v-0.095h-0.31v-0.15z"></path>
</svg>
