<svg xmlns="http://www.w3.org/2000/svg" width="170" height="92" fill="none"><rect width="169" height="91" x=".5" y=".5" stroke="#AFB1B8" rx="3.5"/><path fill="#AFB1B8" d="M85.425 43.4082c-.4431-.5898-.6551-1.2869-.6047-1.9886v-2.8832c0-.8838.2004-1.5555.6013-2.015.4008-.4595 1.0894-.6883 2.0655-.6863.9173 0 1.5684.1955 1.9534.5866.42.499.6243 1.1092.5775 1.7246v.6776h-1.6408v-.6864a3.49346 3.49346 0 0 0-.0476-.6716c-.0236-.1521-.1062-.2927-.2344-.3989-.1685-.1145-.3807-.17-.5945-.1555-.2248-.0145-.4478.0441-.6251.1643-.1429.1177-.2382.2719-.2718.4399-.0471.2354-.0687.474-.0645.7128v3.4991c-.0259.3376.0465.6754.2106.9826.0816.1039.1949.1863.3275.2381.1325.0518.279.0709.4233.0552.2102.0149.4188-.042.5809-.1584.1337-.1146.2197-.2641.2446-.4253.0383-.2321.0554-.4665.051-.701v-.7098h1.6408v.6482c.0461.6416-.1532 1.2784-.5673 1.8126-.3771.4283-1.0192.6424-1.9636.6424-.9444 0-1.6579-.2288-2.0621-.704ZM92.2569 43.4376c-.4145-.4488-.6217-1.1029-.6217-1.9681v-3.0328c0-.8564.2072-1.5046.6217-1.9446.4144-.44 1.1075-.659 2.079-.657.9648 0 1.6545.219 2.0689.657.4145.44.6251 1.0882.6251 1.9446v3.0328c0 .8564-.2106 1.5134-.6319 1.9651-.4212.4517-1.1074.6776-2.0621.6776-.9546 0-1.6612-.2288-2.079-.6746Zm2.8434-.7274c.1484-.2811.216-.589.1971-.8975v-3.7133c.019-.3025-.0475-.6045-.1937-.8799-.0832-.1061-.1994-.1899-.3351-.2418-.1358-.0518-.2857-.0697-.4327-.0515-.1474-.0177-.2976.0003-.4338.0521-.1362.0518-.253.1353-.3373.2412-.1494.2746-.2171.577-.197.8799v3.7309c-.0207.3086.047.6168.197.8975.0956.0946.2137.1704.3461.2224.1324.0519.2762.0788.4217.0788.1454 0 .2892-.0269.4216-.0788.1324-.052.2505-.1278.3461-.2224v-.0176ZM99.0035 35.9236h1.7665l1.328 5.5956 1.359-5.5956h1.719l.174 8.0767h-1.271l-.136-5.6132-1.311 5.6132h-1.019l-1.359-5.6338-.126 5.6338h-1.2841l.1596-8.0767ZM107.33 35.9236h2.752c1.585 0 2.378.7644 2.378 2.2934 0 1.4644-.835 2.1956-2.504 2.1936h-.937v3.5897h-1.699l.01-8.0767Zm2.351 3.4518c.168.0184.338.0051.5-.039.161-.044.309-.1178.434-.2161.195-.2728.281-.5932.245-.9121.009-.2464-.019-.4928-.082-.7332-.024-.0803-.066-.1556-.125-.2216-.058-.066-.131-.1212-.214-.1626-.236-.0976-.497-.142-.758-.129h-.659v2.4136h.659ZM114.909 35.9236h1.825l1.872 8.0767h-1.584l-.37-1.8623h-1.627l-.381 1.8623h-1.606l1.871-8.0767Zm1.56 5.2789-.636-3.3902-.635 3.3902h1.271ZM120.117 35.9236h1.189l2.276 4.6073v-4.6073h1.41v8.0767h-1.131l-2.29-4.8097v4.8097h-1.457l.003-8.0767ZM128.294 40.9208l-1.892-4.9859h1.594l1.155 3.2027 1.083-3.2027h1.56l-1.869 4.9859v3.0795h-1.631v-3.0795ZM88.0477 47.5316v.4224h-1.386v3.2819h-.581V47.954h-1.3928v-.4224h3.3598ZM92.3927 51.2362h-.4485c-.0455.0024-.0904-.0101-.1257-.0352-.0339-.0215-.0598-.051-.0747-.085l-.4009-.8799h-1.9228l-.4009.8799c-.0114.0368-.0323.0708-.0612.0997-.0355.0245-.0802.037-.1256.0352h-.4485l1.6986-3.7041h.5912l1.719 3.6894Zm-2.813-1.3755h1.6036l-.6795-1.5074a2.6989 2.6989 0 0 1-.1257-.349c-.0238.0704-.0442.1378-.0645.1965l-.0612.1554-.6727 1.5045ZM95.3211 50.8724c.1064.0048.213.0048.3193 0 .0919-.0082.1828-.0229.2718-.044.0832-.0177.165-.0402.2446-.0675.0748-.0264.1495-.0587.2276-.0909v-.8331h-.6794a.1372.1372 0 0 1-.0494-.0064.12462.12462 0 0 1-.0423-.0229.08636.08636 0 0 1-.0259-.0304.07423.07423 0 0 1-.0081-.0371v-.2845h1.3181v1.4197a2.5776 2.5776 0 0 1-.3397.176 2.50604 2.50604 0 0 1-.3771.1261c-.1389.0353-.281.0608-.4247.0763a5.12828 5.12828 0 0 1-.4959.0234c-.293.0022-.5837-.0446-.8562-.1378-.2543-.0883-.4854-.22-.6794-.3872-.1891-.1689-.338-.3682-.4382-.5866-.1071-.2456-.1601-.5062-.1563-.7685-.0036-.264.0482-.5264.1529-.7744.0977-.2195.2469-.4193.4382-.5866.1939-.1667.4251-.2974.6795-.3843.2909-.0945.5996-.1412.9104-.1379.1582-.0001.3161.0107.4722.0323.1381.0194.2736.0509.4043.0939.1188.0385.2327.0877.3397.1466.1041.0579.203.1226.2956.1936l-.1631.2288c-.0128.0209-.0318.0385-.0551.0508-.0233.0124-.05.0192-.0774.0196-.0376-.001-.0741-.0112-.1053-.0293-.051-.0235-.1053-.0528-.1665-.088a1.5038 1.5038 0 0 0-.2276-.0997 2.12666 2.12666 0 0 0-.3125-.0822 2.61439 2.61439 0 0 0-.4315-.0322c-.2241-.0022-.4466.0327-.6556.1026-.1891.0655-.3595.1656-.4994.2933-.1408.1332-.2484.29-.316.4606-.1517.4011-.1517.8336 0 1.2348.0744.1742.1901.3331.3398.4664.1393.1271.3084.2271.496.2933.216.0641.4449.089.6726.0734ZM100.736 50.8136h1.855v.4223h-2.422v-3.7043h.581l-.014 3.282ZM104.521 51.2359h-.581v-3.7043h.581v3.7043ZM106.681 47.5492c.035.017.065.04.089.0675l2.483 2.7923a.96912.96912 0 0 1 0-.132V47.517h.506v3.7192h-.292c-.043.003-.087-.0041-.126-.0206-.035-.0184-.066-.0423-.091-.0704l-2.48-2.7894V51.2362h-.486v-3.7046h.302c.033.0001.065.0061.095.0176ZM114.036 47.5316v.4077h-2.058v1.2231h1.668v.393h-1.668v1.2641h2.058v.4077h-2.656v-3.6956h2.656ZM53.1617 24.6555l25.7951 6.3233v22.158l-25.7951-6.3204V24.6555Zm-1.6544-1.8888v25.1261l29.1006 7.1357V29.9054l-29.1006-7.1387Z"/><path fill="#AFB1B8" d="M67.1039 66.6922 38 59.5505V34.4271l29.1039 7.1388v25.1263Z"/><path fill="#AFB1B8" d="m51.9897 24.371 25.4587 6.244-10.8269 9.3499-25.4621-6.247 10.8303-9.3469Zm-.4824-1.6043L38 34.4277l29.1039 7.1385 13.5039-11.6609-29.1005-7.1386ZM68.7414 65.2788l11.8664-10.2473-11.8664-2.9122v13.1595Z"/></svg>