<svg xmlns="http://www.w3.org/2000/svg" width="170" height="92" fill="none"><rect width="169" height="91" x=".5" y=".5" stroke="#AFB1B8" rx="3.5"/><path fill="#AFB1B8" d="M58.7569 60.7352c.2437.2762.3735.622.3667.977.0124.2315-.0322.4627-.1306.6763-.0983.2136-.2479.4042-.4376.5578-.4734.3273-1.0598.4873-1.6517.4506H54v-6.1914h2.8442c.5615-.0342 1.1184.1112 1.5758.4113.1836.1408.3291.3187.4248.5197.0958.2011.1392.4197.1268.6388.0167.3415-.1004.6773-.3303.9467-.2207.246-.5257.4165-.8655.4839.3852.0644.7329.252.9811.5293Zm-3.4058-.9346h1.2156c.2763.0187.5507-.0543.773-.2057.0913-.0757.1623-.1697.2076-.2746.0452-.1049.0635-.2179.0534-.3303.0086-.112-.0101-.2243-.0546-.329-.0446-.1046-.1139-.1988-.2031-.2759-.2289-.1557-.5118-.2298-.7961-.2087h-1.1958v1.6242Zm2.1076 2.3744c.0975-.0776.1742-.1747.2241-.2838.0498-.1091.0715-.2273.0633-.3454.0074-.1194-.0152-.2388-.0662-.3489-.051-.1101-.1289-.2081-.2278-.2862-.2379-.1615-.5304-.2408-.8259-.2239h-1.2751v1.7029h1.2916c.2907.0154.5785-.0604.816-.2147ZM64.5709 63.3969l-1.5823-2.4197h-.5946v2.4197h-1.361v-6.1914h2.5766c.6495-.0415 1.2916.1469 1.7938.5263.3601.336.5774.7788.6125 1.2485.0351.4697-.1141.9355-.4209 1.3134-.3179.3334-.7522.5557-1.2289.6291l1.6847 2.4741h-1.4799Zm-2.1769-3.2636h1.1132c.773 0 1.1595-.3125 1.1595-.9376.0079-.1276-.0133-.2554-.0622-.3752-.0489-.1197-.1245-.2289-.2219-.3205-.2443-.186-.5589-.2762-.8754-.251h-1.1265l.0133 1.8843ZM72.0102 62.1506h-2.7121l-.479 1.2462H67.392l2.4908-6.1219h1.5427l2.4808 6.1219h-1.427l-.4691-1.2462Zm-.3634-.9376-.991-2.6133-.991 2.6133h1.982ZM81.3224 63.3969h-1.3511l-3.0292-4.2103v4.2103h-1.3478v-6.1915h1.3478l3.0292 4.2346v-4.2346h1.3511v6.1915ZM89.0326 61.9149c-.2794.4674-.705.8477-1.2223 1.0919-.5881.272-1.2408.406-1.8994.3902H83.506v-6.1915h2.4049c.6575-.0157 1.3093.1151 1.8994.3811.5172.2387.9433.6151 1.2223 1.0798.2781.5036.423 1.0599.423 1.6242s-.1449 1.1207-.423 1.6243Zm-1.546-.1482c.3856-.4113.5976-.9355.5976-1.4776 0-.542-.212-1.0662-.5976-1.4775-.4661-.3726-1.0739-.5617-1.6914-.5263h-.9381v4.0077h.9381c.6175.0353 1.2253-.1538 1.6914-.5263ZM72.8558 22.7667s17.4387 6.0282 17.0687 14.7513v14.7542S72.4991 46.2411 72.8624 37.518l-.0066-14.7513ZM105.46 48.8181c3.294-2.0753 7.103-3.3607 11.08-3.7385v-4.6187c-4.582 1.617-8.469 4.5489-11.08 8.3572Z"/><path fill="#AFB1B8" d="M103.482 50.2095c2.695-4.9699 7.368-8.8049 13.058-10.7163V26.1847s-24.835 8.587-24.3097 21.0092v21.0062s1.1066-.3841 2.8475-1.104c0-.6714 0-1.3489.0793-2.0295.514-5.767 3.5083-11.111 8.3249-14.8571Z"/><path fill="#AFB1B8" d="M101.12 58.0131c.13-1.4568.421-2.8979.869-4.3011-2.9994 3.2351-4.8156 7.2494-5.1934 11.4786-.0364.3993-.0562.7985-.0661 1.2099 1.4105-.6201 3.0523-1.3944 4.7765-2.3048-.44-2.0009-.57-4.0485-.386-6.0826ZM102.107 58.0887c-.165 1.8403-.062 3.6926.308 5.5079 6.785-3.7173 14.409-9.4611 14.115-16.4027v-.6049c-4.848.4966-9.383 2.437-12.91 5.523-.825 1.9124-1.335 3.9267-1.513 5.9767Z"/></svg>